# xmcd
#
# Track frame offsets: 
#        150
#        16281
#        34658
#        51224
#        68684
#        88083
#        104142
#        119509
#        137086
#        153545
#        170088
#        185852
#        198232
#        214442
#        235230
#        250943
#        267024
#        285378
#        296024
#        315174
#        336447
#
# Disc length: 4725 seconds
#
# Revision: 3
# Processed by: cddbd v1.5.2PL0 Copyright (c) Steve Scherf et al.
# Submitted via: ExactAudioCopyFreeDBPlugin 1.0
#
DISCID=44127315
DTITLE=Seasick Steve - Walkin' Man - The Best Of Seasick Steve
DYEAR=2011
DGENRE=Blues-Rock
TTITLE0=Dog House Boogie
TTITLE1=Cheap
TTITLE2=I Started Out With Nothin'
TTITLE3=Diddley Bo
TTITLE4=Thunderbird
TTITLE5=Happy Man
TTITLE6=Cut My Wings
TTITLE7=Treasures
TTITLE8=St. Louis Slim
TTITLE9=8-Ball
TTITLE10=Don't Know Why She Love Me But She Do
TTITLE11=Walkin' Man
TTITLE12=You Can't Teach An Old Dog New Tricks
TTITLE13=Fallen Off A Rock
TTITLE14=The Banjo Song
TTITLE15=Never Go West
TTITLE16=My Donny
TTITLE17=Prospect Lane
TTITLE18=Xmas Prison Blues
TTITLE19=That's All
TTITLE20=Dark
EXTD=Location:  - UPC: 825646634033 - Catalogue number: 825646634033 - La
EXTD=bel: Rhino - ASIN: B005WRF0PQ - Release Date: 2011 11 14 - Discogs: 
EXTD=a939458,m418322,r4971903 - MUSICBRAINZ_ALBUMID: e781df4d-b086-494a
EXTD=ada2-14b2875c97b7 - AMG: mn0001939829,mw0002251326;
EXTT0=
EXTT1=
EXTT2=
EXTT3=
EXTT4=
EXTT5=
EXTT6=
EXTT7=
EXTT8=
EXTT9=
EXTT10=
EXTT11=
EXTT12=
EXTT13=
EXTT14=
EXTT15=
EXTT16=
EXTT17=
EXTT18=
EXTT19=
EXTT20=
PLAYORDER=
